<?xml version="1.0" encoding="UTF-8" standalone="no"?>
<!DOCTYPE svg PUBLIC "-//W3C//DTD SVG 1.1//EN" "http://www.w3.org/Graphics/SVG/1.1/DTD/svg11.dtd">
<svg viewBox="0 0 1000 1000" version="1.1" xmlns="http://www.w3.org/2000/svg"  fill-rule="evenodd">
	<g>
		<title>Cucoloris Face, by Adam Stanislav</title>
		<path d="m0 0v1000h1000v-1000zm158.72 109.99c5.08-0.05 8.01 5.98 7.91 10.58c0.11 4.14-1.13 8.28-0.38 12.42c1.76 4.93 0.21 10.16-3.64 13.49c-11.6 18.93-13.84 41.67-23.47 61.46c-5.9-1.25-2.62-9.2-6.76-12.15c-4.3-3.97-12.24-4.69-16.05 0.32c-1.56 5.34 5.74 4.65 8.84 6.28c3.75 2.02 10.27 7.02 5.61 11.38c-5.16 4.16-13.73 2.28-16.55-3.77c-3.02-5.21-4.72-11.59-3.48-17.56c1.76-6.38 5.78-11.94 6.79-18.56c5.28-19.01 11.51-38.79 25.32-53.48c4.21-4.31 9.07-8.32 14.82-10.32c0.36-0.06 0.71-0.09 1.04-0.09zm396.67 2.24c4.85-0.14 10.28 1.11 12.48 5.83c3.59 7.28-2.39 17.66-10.78 17.12c-9.49 1.28-18.02 6.14-26.02 11.12c-9.98 6.58-18.26 15.29-26.96 23.38c-4.6 3.67-11.46 6.64-17.01 3.26c-5.48-4.05-5.6-11.61-5.43-17.79c0.4-8.23 2.59-16.36 1.84-24.64c3.16 1.94 6.31 1.01 5.46-3.17c0.36-4.71-1-10.36 2.66-14.11c3.47-2.57 7.54 0.69 9.55 3.59c3.29 4.65 4.46 10.38 4.91 15.95c14.26-9.55 29.64-19.33 47.26-20.39c0.66-0.08 1.34-0.13 2.04-0.15zm-249.51 8.01c12.16 0.14 24.36 4.71 29.37 16.54c8.24 14.89-5 39.89-23.33 30.34c-12.59-8.25-26.5-5.35-38.02 2.8c-24.48 10.32-48.17 24.55-63.99 46.44c-19.63 26.36-33.44 56.41-49.98 84.68c-1.01 2.19-2.4 4.23-2.96 6.61c11.68 14.33 17.05 33.31 31.37 45.49c7.52 10.67 13.33 27.83 3.14 38.68c-11.78 14.35-39.83 14.33-46.83-4.72c-5.19-13.9-2.08-30.78-12.81-42.49c-9.97-12.51-18.59-27.94-15.32-44.5c3.83-20.39 19.31-35.64 27.94-53.97c18.29-33.34 38.68-67.31 70.86-89.07c23.26-16.07 50.01-26.38 76.72-35.12c4.32-1.14 9.07-1.76 13.84-1.71zm103.02 1.42c6.66-0.09 13.45 0.91 19.72 1.97c1.8 0.44 3.57 1.05 5.29 1.77c0.55-0.27 0.9 0.02 0.98 0.43c9.5 4.34 17.21 12.86 18.8 23.39c7.81 14.2 19.31 31.63 10.49 47.96c-15.71 29.93-52.07 41.82-66.55 72.57c-8.12 22.38-10.17 48.43-27.84 66.17c-33.76 33.44-77.81 53.18-120.15 73.22c-7.8 2.57-20.18 4.23-23.35-5.85c9.69 9.33 15.91-21.53 5.51-7.42c-19.48 3.15-10.71-27.77 4.85-23.84c36.85-22.34 78.59-38.74 108.17-71.24c13.62-19.95 12.73-47.68 31.84-64.27c15.92-17.49 37.28-29.24 51.96-47.96c6.39-17.76-14.16-26.25-24.81-35.36c-7.28-8.26-30.97-8.67-18.45-23.68c6.67-5.85 14.99-7.75 23.54-7.86zm418.41 0.7c2.57 0.04 5.16 0.85 7.32 2.21c13.04 6.64 21.53 19.29 28.41 31.75c5.56 10.47 9.93 21.52 15.69 31.88c0.73-0.49 1.53 0.04 2.24 0.24c7.41 7.01 8.88 20.49 1.06 27.76c-8.24 6.88-22.21 1.71-25.27-8.23c-7.16-15.07-10.79-31.7-19.6-46.02c-3.29-5.62-7.26-10.9-12.18-15.18c-6.23 1.38-4.95-7.88-9.48-10.04c-2.09-4.45 1.68-8.92 4.7-11.91c2.02-1.76 4.55-2.5 7.11-2.46zm-141.1 17.59c24.65 0.12 48.84 9.36 69.04 23.31c19.23 13.12 37.37 27.79 56.32 41.3c16.89 13.27 28.79 32.29 33.14 53.32c6.81 26.39 6.52 53.85 7.17 80.89c2.44 15.22 6.83 31.73-0.09 46.44c-12.17-0.63-26.79 5.5-36.92-3.91c-8.66-11.33-5.13-26.84-6.94-40.09c-2.51-33.08 4.88-68.39-10.49-99.35c-10.98-19.17-29.5-32.21-45.3-47.12c-19.44-16.33-44.22-29.78-70.38-26.87c-10.69-4.96-23.16 9.31-29.25-4.22c-5.59-15 10.87-22.65 23.11-23.19c3.53-0.36 7.06-0.53 10.59-0.51zm-123.5 11.85c4.74 0.2 9.45 0.99 14.01 2.28c43.04 13.29 62.95 58.69 74.55 98.5c8.5 37.6 24.07 73.06 43.01 106.52c16.09 25.36 22.81 60.39 53.26 73.36c19.16 5.39 48.78-7.54 58.56 18.15c16.77 11.39 13.22 41.18-10.33 41.43c-29.01-6.61-59.5-11.5-85.98-26.01c-27.54-6.7-5.85 26.25-1.53 37.85c-14.31 28.35-42.92 48.57-74.11 53.8c-25.82 8.67-54.95-21.8-39.75-46.36c12.09-25.21 49.27-13.47 63.29-32.45c-7.18-14.22-35.07-24.94-46.77-10.91c-10.65 22.16-31.8 35.48-50.96 49.64c-22.93 22.03-54.61-8.14-36.39-33c8.04-18.22 53.79-24.53 36.99-48.3c-19.44-8.12-40.93-11.93-60.64-19.99c-22.2-7.32-41.34-20.6-59.61-34.73c-15.3-9.63-34.74-25.72-26.87-46.04c10.75-28.03 41.11-2.62 51.58 12.57c45.66 39.48 111.14 36.6 161.06 67.79c13.9 8.85 43.19 18.11 46.04-6.3c-28.17-41.52-40.79-91.12-49.66-139.87c-4.86-28.04-13.14-61.47-41.97-73.82c-15.02-7.99-34.32-28.28-17.78-44.11zm-219.53 39.56c2.19 0.13 4.31 1.12 5.93 2.61c6.09 5.71-2.45 16.19-9.54 12.93c-3.87-5.76-9.29 0.14-5.04 4.48c2.62 5.81 9.57-1.15 11.89 2.96c-12.26 17.15-32.02 26.23-47.06 40.46c-11.78 9.14-15.83 24.39-17.1 38.58c0.36 9.44-8.95 15.24-10.62 24.06c-2.25 8.49-12.23 10.1-19.69 10.77c-10.73-2.8-16.92-12.71-23.67-20.65c-15.63-19.07-12.99-49.28 3.86-66.74c4.23-4.76 8.46-9.61 10.79-15.54c3.22-5.49 13.02-8.2 15.85-0.98c-0.02 6.48-4.07 11.94-7.91 16.81c-6.18 8.62-15.1 16.61-15.94 27.82c0.37 9.3 5.28 17.77 10.31 25.36c3.23 8.56 14.65 6.21 16.94-1.87c2.31-9.45 2.3-19.62 6.76-28.51c11.01-23.23 34.78-35.69 51.62-53.99c5.5-7.21 10.34-17.23 20.42-18.39c0.73-0.16 1.47-0.22 2.2-0.17zm189.2 24.7c0.26-0.01 0.52 0 0.78 0.02c4.57 0.33 9.04 4.39 10.8 8.66c5.48 9.89 3.3 21.66 0.62 32.01c-0.92 12.78 9.34 23.22 20.09 28.44c6.34 3.27 13.14 5.48 19.89 7.73c7.72 3.21 14.38 8.85 18.92 15.87c-4.67-0.47-8.79-5.55-14.32-3.04c-6.7 0.27-13.11 10.14-5.56 14.11c5.1 3.33 11.73 0.32 16.68 3.95c4.89 2.82 6.49 9.96 2.59 14.28c-3.71 4.78-10.79 6.76-16.37 4.27c-7.55 1.06-13.25-6.09-15.01-12.7c-2.76-7.13-11.31-7.62-17.28-10.62c-10.58-5.15-16.36-16.02-23.05-25.11c-3.74-5.89-7.94-11.59-11.04-17.82c-4.07-12.91 2.8-25.56 5.07-38.06c0.57-6.54-2.97-14.19 1.93-19.78c1.64-1.5 3.45-2.17 5.26-2.21zm147.21 11.59c3.05 0.11 5.99 2.12 3.88 5.56c-0.61 2.41-0.44 4.93-0.1 7.37c7.66 2.46 3.96-12.66 10.15-9.88c6.84 5.6 7 15.26 6.17 23.34c-1.03 9.16-2.68 18.43-0.87 27.61c3.2 21.12 16.46 41.25 36.3 50.04c5.53 2.46 6.33 12.41-1.24 12.13c-11.41 1.59-21.58-6.1-28.67-14.24c-14.97-17.29-20.58-40.43-22.45-62.73c-0.56-6.59-0.79-13.19-0.87-19.8c-4.14-3.65-8.6-8.84-7.17-14.78c-0.61-3.05 1.75-4.5 4.26-4.62c0.21-0.01 0.41-0.01 0.61 0zm-202.47 39.34c0.85-0.04 1.73 0.12 2.58 0.56c3.98 1.91 6.31 6.07 8.53 9.71c1.97 3.66 3.31 7.67 3.76 11.81c1.81 4.89-0.46 11.06 3.56 15.13c11.67 6.1 19.96 17.54 23.8 29.98c-3.71 3.33-0.17 8.16 0.34 12.04c-0.04 4.12-0.47 8.56-2.58 12.17c-2.11 3.68-6.72 5.13-10.61 3.61c-9.29-2.55-15.21-11.25-18.5-19.8c-2.53-6.27-7.56-11.39-13.73-14.12c-7.73-4.55-14.19-12.52-14.24-21.84c-0.46-5.95 0.77-11.87 2.24-17.6c-0.4-4.73-4.6-10.47-0.54-14.61c4.94-2.89 6.22 3.46 7.18 6.78c3.4 5.19 7.78-2.84 4.24-5.93c-2.77-3.53 0.3-7.7 3.97-7.89zm-282.1 134.06c14.39 0.09 25.04 26.23 0.72 31.95c-2.61 5.75-7.04 11.29-7.26 17.84c7.05 33.51 28.48 65.21 19.27 100.75c-5.78 54.43-26.07 109.77-12.89 164.48c14.9 25.65 24.92 61.02 56.27 70.33c34.44 10.32 69.25 26.09 106.04 19.79c56.59-6.69 114.34 6.58 170.48-6.83c38.14-9.1 75.45 5.99 112.92 9.86c42.96 0.3 87.95-20.18 129.17 0.72c28.82 16.87 30.35-37.19 36.78-56.7c11.69-59.64-14.47-117.82-15-177.35c-3.96-21.52-30.64-49.69-7.85-64.29c29.13 13.56 35.9 50.84 36.51 79.91c0.29 58.55 22.92 115.27 18.98 173.98c-11.21 31.88-17.29 75.29-44.62 95.48c-28.37 5.19-55.49-14.69-84.5-4.74c-39.46 6.56-80.92 12.37-119.56-1.62c-39.2-12.7-78.7 4.49-118.42 2.39c-43.58-0.13-87.09-5.53-130.62-0.7c-37.67 2.9-71.77-15.49-107.48-24.23c-26.84-7.67-50.07-25.44-62.2-50.96c-29.8-35.04-38.04-82.72-31.59-127.27c3.44-45.51 20.7-88.8 24.27-134.1c-2.27-36.66-11.39-78.09 16.09-108.36c4.47-7.49 9.69-10.35 14.49-10.33zm196.67 47.67c26.7 0.18 52.57 10.01 76.05 22.16c6.36 3.72 12.2 8.65 15.95 15.08c0.3 9.64-3.6 22.28-14.54 24c-13.28 0.43-2.72-20.66-15.03-21.88c-12.09-1.13-6.56 25.58-18.46 17.8c-15.05-12.35-32.04-24.46-52.16-25.67c-22.15-3.04-46.53 1.09-63.47 16.59c-9.6 7.68-20.62 14.04-28.35 23.75c-4.84 7.73-4.1 19.99-14 23.71c-11.23 5.78-25.05-5.86-22.77-17.84c2.44-19.43 18.14-33.65 33.15-44.51c10.58-7.13 20.61-15.23 31.82-21.36c19.54-9.78 41.88-12.48 63.5-11.57c2.77-0.19 5.55-0.28 8.31-0.26zm-19.28 38.82c1.57-0.01 3.14 0.12 4.7 0.41c10.64 1.39 16.79 12.44 17.6 22.28c1.83 6.95 8.57 11.73 9 19.19c3.85 17.98-4.67 36.3-16.93 49.13c-18.18 20.61-49.72 30-75.43 18.75c-9.96-4.59-16.05-15.64-15-26.51c0.4-11.06 6.92-20.48 13.46-28.91c13.4-19.37 27.37-40.05 48.96-51.02c4.25-1.99 8.94-3.3 13.64-3.32zm97.83 51.8c8.64-0.17 15.76 8.35 17.72 16.43c2.92 12.11-1.26 24.7-6.36 35.62c-4.59 8.97-11.18 16.92-19.15 23.1c13.09-4.53 24.76-12.77 38.55-15.35c11.16-3.2 22.53-5.72 33.46-9.69c1.68 8.61 6.45 18.71 16.08 20.21c8.7 3.71 13.85 14.38 10.94 23.46c-11.2 9.15-26.36 9.55-39.5 14.3c-16.73 5-31.78 14.89-49.28 17.42c-19.24 3.61-40.41 2.55-57.51-7.76c-13.92-11.22-14.39-33.25-4.59-47.29c8.57-15.02 21.24-27.02 32.02-40.39c0.12-11 12.52 2.35 16.75-4.48c6.15-7.29-4.64-21.04 7.09-24.94c1.28-0.41 2.55-0.61 3.78-0.64zm127.23 58.85c11.96 11.34 31.3 0.27 43.15 11.81c7.25 15.66-6.16 30.08-14.13 42.36c-24.54 35.62-66.08 52.7-104.45 68.99c-45.37 19.3-98.17 27.15-145.31 9.3c-19.09-6.73-39.77-18.01-46.66-38.31c-4.49-14.13 9.61-30.8 24.02-23.21c15.43 5.85 26.26 20.56 43.13 23.33c41.02 12.2 85.09-0.63 120.61-22.21c20.33-11.76 42.48-21.22 60.26-36.82c9.67-9.53 16.79-21.84 19.38-35.24zm114.08 35.52c7.15 0.14 9.99 8.68 8.8 14.69c-1.75 9.19-5.71 17.79-8.95 26.52c-11.68 28.86-29.67 56.31-56.16 73.54c-10.9 7.27-22.89 12.93-35.45 16.66c-7.24 0.19-16.71 7.11-22.31-0.48c-4.1-7.51 1.25-16.08 6.44-21.52c9.49-8.8 23.94-8.95 33.3-17.99c27.75-18.87 46.63-47.88 61.13-77.55c5.19-3.87 6.28-12.33 13.2-13.87z"/>
	</g>
</svg>
